<svg
    width="17"
    height="16"
    viewBox="0 0 17 16"
    fill="none"
    xmlns="http://www.w3.org/2000/svg"
  >
    <path
      d="M16.5679 7.76637V14.822C16.5679 15.2142 16.252 15.5326 15.8628 15.5326H4.55808C4.16893 15.5326 3.85298 15.2142 3.85298 14.822V7.76637L10.4031 6.98975L16.5679 7.76637Z"
      fill="#036C70"
    />
    <path
      d="M4.55808 0H15.8628C16.252 0 16.5679 0.318415 16.5679 0.710609V7.76622H3.85298V0.710609C3.85298 0.318415 4.16893 0 4.55808 0Z"
      fill="#37C6D0"
    />
    <path
      d="M10.7884 9.70801H14.6414V13.5911H10.7884V9.70801Z"
      fill="#1A9BA1"
    />
    <path
      d="M12.7149 6.21295C13.9917 6.21295 15.0267 5.16984 15.0267 3.88309C15.0267 2.59634 13.9917 1.55322 12.7149 1.55322C11.4382 1.55322 10.4031 2.59634 10.4031 3.88309C10.4031 5.16984 11.4382 6.21295 12.7149 6.21295Z"
      fill="#1A9BA1"
    />
    <path
      d="M12.7149 5.04813C13.3533 5.04813 13.8708 4.52657 13.8708 3.88319C13.8708 3.23982 13.3533 2.71826 12.7149 2.71826C12.0765 2.71826 11.559 3.23982 11.559 3.88319C11.559 4.52657 12.0765 5.04813 12.7149 5.04813Z"
      fill="#036C70"
    />
    <path
      opacity="0.1"
      d="M8.54209 3.10645H3.85298V12.8142H8.54209C8.93125 12.8142 9.24719 12.4958 9.24719 12.1036V3.81705C9.24719 3.42486 8.93125 3.10645 8.54209 3.10645Z"
      fill="black"
    />
    <path
      opacity="0.2"
      d="M8.15679 3.49463H3.85298V13.2024H8.15679C8.54595 13.2024 8.86189 12.884 8.86189 12.4918V4.20524C8.86189 3.81304 8.54595 3.49463 8.15679 3.49463Z"
      fill="black"
    />
    <path
      opacity="0.2"
      d="M8.15679 3.49463H3.85298V12.4258H8.15679C8.54595 12.4258 8.86189 12.1074 8.86189 11.7152V4.20524C8.86189 3.81304 8.54595 3.49463 8.15679 3.49463Z"
      fill="black"
    />
    <path
      opacity="0.2"
      d="M7.77149 3.49463H3.85298V12.4258H7.77149C8.16065 12.4258 8.47659 12.1074 8.47659 11.7152V4.20524C8.47659 3.81304 8.16065 3.49463 7.77149 3.49463Z"
      fill="black"
    />
    <path
      d="M0.7051 3.49463H7.76766C8.15682 3.49463 8.47276 3.81304 8.47276 4.20524V11.323C8.47276 11.7152 8.15682 12.0336 7.76766 12.0336H0.7051C0.315947 12.0375 0 11.7191 0 11.3269V4.20524C0 3.81304 0.315947 3.49463 0.7051 3.49463Z"
      fill="url(#paint0_linear_18890_4483)"
    />
    <path
      d="M5.66778 6.20547H3.67963V7.46748H5.53292V8.21692H3.67963V10.0808H2.78188V5.45215H5.67163L5.66778 6.20547Z"
      fill="white"
    />
    <defs>
      <linearGradient
        id="paint0_linear_18890_4483"
        x1="1.47256"
        y1="2.93846"
        x2="7.06888"
        y2="12.5559"
        gradientUnits="userSpaceOnUse"
      >
        <stop stop-color="#058F92" />
        <stop offset="0.5" stop-color="#038489" />
        <stop offset="1" stop-color="#026D71" />
      </linearGradient>
    </defs>
  </svg>
